<svg xmlns="http://www.w3.org/2000/svg" viewBox="0 0 496 496" width="512" height="512"><path fill-rule="evenodd" class="shp0" d="M496 248C496 384.97 384.97 496 248 496C111.03 496 0 384.97 0 248C0 111.03 111.03 0 248 0C384.97 0 496 111.03 496 248ZM448 248C448 137.72 358.28 48 248 48C137.72 48 48 137.72 48 248C48 358.28 137.72 448 248 448C358.28 448 448 358.28 448 248ZM347.94 121.86C364.6 114.25 381.75 131.4 374.14 148.06L308.17 292.4C307.38 294.13 306.44 295.78 305.35 297.34C304.27 298.9 303.05 300.36 301.71 301.71C300.36 303.05 298.9 304.27 297.34 305.35C295.78 306.44 294.13 307.38 292.4 308.17L148.06 374.14C131.4 381.75 114.25 364.59 121.86 347.94L187.83 203.6C188.62 201.87 189.56 200.22 190.65 198.66C191.73 197.1 192.95 195.64 194.29 194.29C195.64 192.95 197.1 191.73 198.66 190.65C200.22 189.56 201.87 188.62 203.6 187.83L347.94 121.86ZM270.58 225.42C258.11 212.95 237.89 212.95 225.42 225.42C212.95 237.89 212.95 258.11 225.42 270.58C237.89 283.05 258.11 283.05 270.58 270.58C283.05 258.11 283.05 237.89 270.58 225.42Z" /></svg>
